<svg width="595.28" height="841.89" xmlns="http://www.w3.org/2000/svg">
 <g>
  <title>Layer 1</title>
  <g id="svg_1">
   <g id="svg_2">
    <path fill-rule="evenodd" clip-rule="evenodd" d="m206.776001,15.548c0.294998,0 0.591003,0 0.886002,0c15.028992,5.646 29.923996,7.75 42.231995,15.062c11.764999,6.988998 21.849014,16.533001 31.305008,25.988998c19.562988,19.562004 33.455994,43.211998 39.574005,75.309998c10.166992,53.335999 -3.561005,107.326996 -20.082001,145.006989c-5.843018,13.326019 -12.098999,26.370026 -21.264008,36.326019c8.416992,-26.519012 13.907013,-66.330002 8.859985,-100.708008c-1.528992,-10.418991 -5.148987,-20.30098 -10.927002,-26.875c10.812012,25.738998 10.848022,66.136002 5.611023,97.164001c-1.796997,10.652008 -3.971008,20.891998 -7.678009,29.238007c-3.347992,-29.970001 -13.468994,-51.809998 -27.169998,-71.764999c-13.423004,-19.55101 -29.132996,-37.054001 -39.279007,-59.656998c-5.478989,-12.206009 -9.154999,-24.200012 -9.154999,-40.165009c0,-15.309998 3.514999,-29.051003 7.087997,-42.528c6.044006,-22.802002 16.873001,-62.688 -0.000992,-82.397999zm47.548004,146.483982c1.68399,-0.776978 2.927002,-1.994995 3.544006,-3.838989c1.988007,-0.417999 2.309998,-2.115997 3.838989,-2.65799c5.251007,-1.859009 12,3.604004 16.539001,3.248993c-1.921997,-3.299011 -3.781006,-8.677002 -5.907013,-11.813004c-1.211975,-8.304993 5.687012,-10.889999 7.679016,-16.832993c-5.570007,0.238007 -9.679016,1.938004 -15.652008,1.772003c-4.743011,-3.492996 -6.447998,-8.244003 -10.632004,-12.109001c-1.860977,4.931 -1.153976,12.430992 -4.133987,16.243004c-4.563004,1.934998 -9.784012,3.210999 -13.881012,5.610977c3.867004,3.210022 10.997009,4.341003 13.585022,8.270004c1.690979,2.565994 -0.055023,9.509995 0.885986,14.766998c2.584991,0.319 2.946991,-1.583008 4.134003,-2.660004z" id="svg_3" fill="#a50014"/>
    <path fill-rule="evenodd" clip-rule="evenodd" d="m547.882996,146.970001c0,1.871002 0,3.740997 0,5.610992c-1.171997,33.677002 -13.180969,58.968002 -28.646973,79.739014c-15.298035,20.544998 -35.848022,37.083008 -57.294037,50.796997c-43.902985,28.074005 -97.918976,47.253998 -158.296997,57.88501l0.147003,-1.292023l-0.738007,-1.069977c25.07901,-9.77301 49.292023,-21.338013 68.813019,-36.917023c19.371002,-15.459991 36.307983,-34.832001 42.821991,-62.904999c-3.368988,8.218002 -7.290009,16.014023 -11.812988,23.330994c-1.549011,2.505005 -2.580017,5.242004 -4.13501,7.383026c-1.497009,2.060974 -3.73999,3.86499 -5.610992,5.905975c-5.201996,5.675018 -10.723999,12.143036 -16.539001,17.425018c-23.614014,21.445984 -55.335999,35.992981 -89.189026,46.958038c34.285004,-26.30304 31.700989,-84.920029 54.04599,-122.267029c21.139008,-35.333023 58.226013,-61.481979 104.84201,-71.174011c32.447021,-6.746002 70.07605,-6.378998 100.117004,-17.128998c0.665039,5.730988 1.041992,11.753998 1.476013,17.718994zm-128.764008,67.334991c-2.567993,3.658005 -7.272003,6.593002 -10.632996,9.451004c-1.050995,0.893997 -2.927002,1.778 -2.657013,2.952988c5.380005,2.685013 12.542023,0.638 16.834015,3.544006c4.856995,3.289993 3.779999,13.477005 7.678009,17.128998c3.743988,-3.709991 4.569,-12.955002 9.154999,-15.651993c4.348999,-2.557007 11.757996,0.09201 18.015991,-1.477005c-1.28299,-4.759003 -10.752014,-8.593994 -11.812988,-13.880005c-1.264008,-6.291992 4.339996,-11.763 3.839996,-18.014999c-5.098022,1.093002 -11.169006,7.529007 -16.539001,7.383011c-5.108002,-0.139008 -12.085999,-9.157013 -15.947021,-9.155014c0.536011,6.058014 2.01001,11.180023 2.06601,17.719009z" id="svg_4" fill="#a50014"/>
    <path fill-rule="evenodd" clip-rule="evenodd" d="m252.257004,315.898987c-9.41301,-22.042999 -22.947998,-41.212006 -39.87001,-56.70401c-7.628998,-6.983994 -15.383011,-13.141983 -25.102997,-17.719986c7.35701,8.938004 18.402008,16.334 27.169998,25.103012c17.139999,17.139984 31.03302,37.422974 38.984009,64.677979c-14.347992,-17.640991 -35.130005,-27.156982 -58.179993,-35.144989c-23.305008,-8.075989 -47.639008,-13.84201 -67.040009,-25.989014c-28.576004,-17.890991 -48.083,-45.541992 -64.973003,-74.717987c-2.780998,-4.804001 -5.846001,-9.709 -8.564987,-14.766998c-2.718002,-5.057007 -5.137012,-10.492004 -8.269001,-15.35701c0,-0.196991 0,-0.393997 0,-0.589996c21.29599,9.977005 51.714996,6.472 79.444,10.335999c25.951004,3.616989 46.800995,12.131989 63.496002,25.988998c16.544006,13.731003 28.372986,31.081009 39.57399,49.911011c11.091003,18.643982 21.388992,38.475983 25.39801,63.791992l-1.165009,0.360992l-0.901001,0.820007zm-104.251999,-98.345001c-2.729004,1.410004 -6.297989,0.306 -10.041992,1.47702c0.625992,3.218979 6.456985,4.112 7.38298,7.973999c0.877014,3.653992 -1.730988,6.677002 -1.771988,10.927002c4.210007,-1.061005 6.534988,-5.475021 11.222992,-4.725021c3.462997,0.554001 5.428986,4.432999 8.859985,4.429993c-0.609985,-3.622986 -2.001999,-6.463989 -1.771988,-10.926987c0.922989,-1.333008 2.347,-2.849014 3.838989,-4.134003c1.348999,-1.16301 3.726013,-2.294998 3.249023,-3.544006c-3.386002,-1.319 -6.808014,-0.145004 -9.450012,-1.181992c-3.98999,-1.565002 -3.87999,-7.13501 -6.202011,-10.335999c-2.309998,3.11499 -1.867996,8.258987 -5.315979,10.039993z" id="svg_5" fill="#a50014"/>
    <path fill-rule="evenodd" clip-rule="evenodd" d="m523.369995,284.299011c0.250977,-0.054993 0.278015,0.11499 0.296021,0.295013c6.255005,20.828979 1.945984,41.107971 -6.79303,54.340973c-8.764984,13.271027 -23.514984,22.52301 -40.165009,26.875c-27.843994,7.278015 -65.371979,2.384003 -86.826996,-7.382996c-7.699036,-3.505005 -15.069977,-7.371002 -19.492004,-13.289978c18.707001,-6.913025 43.140015,-7.487 67.927002,-7.679047c-18.431976,-6.879974 -48.868988,-1.810974 -66.448975,3.248993c9.862,-6.450989 20.370972,-14.022003 33.666992,-18.014984c13.519989,-4.059998 28.527985,-5.837982 44.005005,-7.678009c31.368011,-3.731018 60.192993,-7.572998 73.830994,-30.714996l0,0.000031zm-75.014008,59.656982c4.31601,-2.436005 9.488007,-0.494995 11.812988,2.362c-0.462982,-5.975006 2.506012,-8.519989 6.201019,-10.335999c-5.05899,-0.651001 -7.29599,-4.123016 -8.269012,-8.860016c-1.309998,4.081024 -6.324005,5.617004 -10.927979,4.725006c3.195984,2.360016 3.752991,8.565002 1.182983,12.109009z" id="svg_6" fill="#a50014"/>
    <path fill-rule="evenodd" clip-rule="evenodd" d="m241.919998,349.270996c-3.246994,-2.36499 -5.041992,-6.181 -8.268997,-8.565002c-5.115005,-5.024994 -12.089005,-8.190002 -18.901001,-11.518005c-6.401993,-0.894989 -12.457993,-1.941986 -19.195999,-1.772003c17.050003,4.706024 33.528,9.984009 41.641998,23.626007c-26.250992,-6.52298 -54.653992,4.871002 -77.671997,9.450012c-23.029999,4.15799 -48.502998,0.341003 -65.563004,-6.791992c-1.138,-1.225006 -2.865997,-1.859009 -4.725998,-2.362c-2.550003,-2.274017 -6.232002,-3.416016 -8.564003,-5.907013c-2.524986,-2.200012 -5.898987,-3.550995 -7.087997,-7.088013c35.904991,-2.796997 56.806007,-25.73999 92.734001,-28.646942c16.063004,-1.300049 29.464996,2.52298 41.641998,7.677979c10.234985,4.333984 21.270004,11.080963 28.056,19.491974c2.261993,2.806 5.167999,7.029999 5.904999,12.404999zm-70.878998,-19.492004c3.360001,1.786011 4.692993,3.777008 4.725998,8.859985c1.817001,-2.166992 6.923996,-3.404999 9.746002,-1.181976c-1.794006,-4.019012 -0.302994,-8.542999 1.772003,-10.335999c-5.197006,0.667999 -7.333008,-1.723022 -9.154999,-4.430023c-0.372009,4.354034 -3.292007,6.160034 -7.089005,7.088013z" id="svg_7" fill="#a50014"/>
    <path fill-rule="evenodd" clip-rule="evenodd" d="m311.618011,827.70697c-9.746002,0 -19.492004,0 -29.237,0c-73.570007,-6.379028 -123.460007,-34.45697 -161.841003,-75.604004c-19.104996,-20.481995 -34.571999,-43.593994 -46.366997,-71.765991c-11.246002,-26.861023 -18.681004,-58.824036 -17.720001,-98.935974c0.901001,-37.605042 9.871002,-66.871033 22.445,-93.325012c12.506996,-26.310974 28.821999,-48.09201 48.728996,-67.629974c19.534004,-19.171997 43.119011,-35.924011 70.584007,-48.139008c27.776001,-12.35199 60.018997,-20.673004 98.344986,-20.673004c37.563019,0 70.358002,8.945984 97.459015,21.264008c27.695984,12.588989 51.102997,28.066986 70.878998,47.842987c29.735992,29.736023 52.029022,64.309021 63.496002,109.863007c3.758972,14.931946 7.102966,32.625 7.383972,51.09198c0.604004,39.712036 -6.529968,70.781982 -18.015991,98.344971c-21.877991,52.505005 -60.411011,95.085083 -111.929993,121.972107c-26.011993,13.575989 -58.121002,23.190002 -94.209991,25.69397l0,-0.000061zm-18.015015,-320.728973c-14.618011,39.769989 -47.216995,69.006989 -95.095993,79.14798c55.828003,12.188049 89.314011,46.020996 100.412003,100.413025c3.143005,-12.997986 7.270996,-24.768005 12.994995,-35.734985c17.166992,-32.895996 46.958984,-55.962036 88.598999,-64.973022c-55.796997,-11.502991 -89.520996,-49.901978 -101.298004,-99.526001c-1.732971,7.353973 -3.303986,14.39502 -5.612,20.672974l0,0.000031z" id="svg_8" fill="#a50014"/>
    <g id="svg_9">
     <path fill-rule="evenodd" clip-rule="evenodd" fill="#a50014" stroke="#000000" stroke-width="1.5618" stroke-linecap="round" d="m292.126007,342.479004c3.949005,-0.612 7.748993,-1.815002 11.666016,-2.769012" id="svg_10"/>
     <path fill-rule="evenodd" clip-rule="evenodd" fill="#a50014" stroke="#000000" stroke-width="1.562" stroke-linecap="round" d="m254.914993,322.69101c-0.348007,-2.576996 -1.011002,-5.128998 -1.755997,-7.613007" id="svg_11"/>
    </g>
   </g>
  </g>
 </g>
</svg>