<?xml version="1.0" encoding="utf-8"?>
<!-- Generator: Adobe Illustrator 15.0.0, SVG Export Plug-In . SVG Version: 6.00 Build 0)  -->
<!DOCTYPE svg PUBLIC "-//W3C//DTD SVG 1.1//EN" "http://www.w3.org/Graphics/SVG/1.1/DTD/svg11.dtd">
<svg version="1.1" id="Layer_1" xmlns="http://www.w3.org/2000/svg" xmlns:xlink="http://www.w3.org/1999/xlink" x="0px" y="0px"
	 width="595.28px" height="841.89px" viewBox="0 0 595.28 841.89" enable-background="new 0 0 595.28 841.89" xml:space="preserve">
<g>
	<g>
		<path fill-rule="evenodd" clip-rule="evenodd" d="M206.776,15.548c0.295,0,0.591,0,0.886,0
			c15.029,5.646,29.924,7.75,42.232,15.062c11.765,6.989,21.849,16.533,31.305,25.989c19.563,19.562,33.456,43.212,39.574,75.31
			c10.167,53.336-3.561,107.327-20.082,145.007c-5.843,13.326-12.099,26.37-21.264,36.326c8.417-26.519,13.907-66.33,8.86-100.708
			c-1.529-10.419-5.149-20.301-10.927-26.875c10.812,25.739,10.848,66.136,5.611,97.164c-1.797,10.652-3.971,20.892-7.678,29.238
			c-3.348-29.97-13.469-51.81-27.17-71.765c-13.423-19.551-29.133-37.054-39.279-59.657c-5.479-12.206-9.155-24.2-9.155-40.165
			c0-15.31,3.515-29.051,7.088-42.528C212.821,75.144,223.65,35.258,206.776,15.548z M254.324,162.032
			c1.684-0.777,2.927-1.995,3.544-3.839c1.988-0.418,2.31-2.116,3.839-2.658c5.251-1.859,12,3.604,16.539,3.249
			c-1.922-3.299-3.781-8.677-5.907-11.813c-1.212-8.305,5.687-10.89,7.679-16.833c-5.57,0.238-9.679,1.938-15.652,1.772
			c-4.743-3.493-6.448-8.244-10.632-12.109c-1.861,4.931-1.154,12.431-4.134,16.243c-4.563,1.935-9.784,3.211-13.881,5.611
			c3.867,3.21,10.997,4.341,13.585,8.27c1.691,2.566-0.055,9.51,0.886,14.767C252.775,165.011,253.137,163.109,254.324,162.032z"/>
		<path fill-rule="evenodd" clip-rule="evenodd" d="M547.883,146.97c0,1.871,0,3.741,0,5.611
			c-1.172,33.677-13.181,58.968-28.647,79.739c-15.298,20.545-35.848,37.083-57.294,50.797
			c-43.903,28.074-97.919,47.254-158.297,57.885l0.147-1.292l-0.738-1.07c25.079-9.773,49.292-21.338,68.813-36.917
			c19.371-15.46,36.308-34.832,42.822-62.905c-3.369,8.218-7.29,16.014-11.813,23.331c-1.549,2.505-2.58,5.242-4.135,7.383
			c-1.497,2.061-3.74,3.865-5.611,5.906c-5.202,5.675-10.724,12.143-16.539,17.425c-23.614,21.446-55.336,35.993-89.189,46.958
			c34.285-26.303,31.701-84.92,54.046-122.267c21.139-35.333,58.226-61.482,104.842-71.174
			c32.447-6.746,70.076-6.379,100.117-17.129C547.072,134.982,547.449,141.005,547.883,146.97z M419.119,214.305
			c-2.568,3.658-7.272,6.593-10.633,9.451c-1.051,0.894-2.927,1.778-2.657,2.953c5.38,2.685,12.542,0.638,16.834,3.544
			c4.857,3.29,3.78,13.477,7.678,17.129c3.744-3.71,4.569-12.955,9.155-15.652c4.349-2.557,11.758,0.092,18.016-1.477
			c-1.283-4.759-10.752-8.594-11.813-13.88c-1.264-6.292,4.34-11.763,3.84-18.015c-5.098,1.093-11.169,7.529-16.539,7.383
			c-5.108-0.139-12.086-9.157-15.947-9.155C417.589,202.644,419.063,207.766,419.119,214.305z"/>
		<path fill-rule="evenodd" clip-rule="evenodd" d="M252.257,315.899c-9.413-22.043-22.948-41.212-39.87-56.704
			c-7.629-6.984-15.383-13.142-25.103-17.72c7.357,8.938,18.402,16.334,27.17,25.103c17.14,17.14,31.033,37.423,38.984,64.678
			c-14.348-17.641-35.13-27.157-58.18-35.145c-23.305-8.076-47.639-13.842-67.04-25.989c-28.576-17.891-48.083-45.542-64.973-74.718
			c-2.781-4.804-5.846-9.709-8.565-14.767c-2.718-5.057-5.137-10.492-8.269-15.357c0-0.197,0-0.394,0-0.59
			c21.296,9.977,51.715,6.472,79.444,10.336c25.951,3.617,46.801,12.132,63.496,25.989c16.544,13.731,28.373,31.081,39.574,49.911
			c11.091,18.644,21.389,38.476,25.398,63.792l-1.165,0.361L252.257,315.899z M148.005,217.554
			c-2.729,1.41-6.298,0.306-10.042,1.477c0.626,3.219,6.457,4.112,7.383,7.974c0.877,3.654-1.731,6.677-1.772,10.927
			c4.21-1.061,6.535-5.475,11.223-4.725c3.463,0.554,5.429,4.433,8.86,4.43c-0.61-3.623-2.002-6.464-1.772-10.927
			c0.923-1.333,2.347-2.849,3.839-4.134c1.349-1.163,3.726-2.295,3.249-3.544c-3.386-1.319-6.808-0.145-9.45-1.182
			c-3.99-1.565-3.88-7.135-6.202-10.336C151.011,210.629,151.453,215.773,148.005,217.554z"/>
		<path fill-rule="evenodd" clip-rule="evenodd" d="M523.37,284.299c0.251-0.055,0.278,0.115,0.296,0.295
			c6.255,20.829,1.946,41.108-6.793,54.341c-8.765,13.271-23.515,22.523-40.165,26.875c-27.844,7.278-65.372,2.384-86.827-7.383
			c-7.699-3.505-15.07-7.371-19.492-13.29c18.707-6.913,43.14-7.487,67.927-7.679c-18.432-6.88-48.869-1.811-66.449,3.249
			c9.862-6.451,20.371-14.022,33.667-18.015c13.52-4.06,28.528-5.838,44.005-7.678C480.907,311.283,509.732,307.441,523.37,284.299z
			 M448.356,343.956c4.316-2.436,9.488-0.495,11.813,2.362c-0.463-5.975,2.506-8.52,6.201-10.336
			c-5.059-0.651-7.296-4.123-8.269-8.86c-1.31,4.081-6.324,5.617-10.928,4.725C450.369,334.207,450.926,340.412,448.356,343.956z"/>
		<path fill-rule="evenodd" clip-rule="evenodd" d="M241.92,349.271c-3.247-2.365-5.042-6.181-8.269-8.565
			c-5.115-5.025-12.089-8.19-18.901-11.518c-6.402-0.895-12.458-1.942-19.196-1.772c17.05,4.706,33.528,9.984,41.642,23.626
			c-26.251-6.523-54.654,4.871-77.672,9.45c-23.03,4.158-48.503,0.341-65.563-6.792c-1.138-1.225-2.866-1.859-4.726-2.362
			c-2.55-2.274-6.232-3.416-8.564-5.907c-2.525-2.2-5.899-3.551-7.088-7.088c35.905-2.797,56.806-25.74,92.734-28.647
			c16.063-1.3,29.465,2.523,41.642,7.678c10.235,4.334,21.27,11.081,28.056,19.492C238.277,339.672,241.183,343.896,241.92,349.271z
			 M171.041,329.779c3.36,1.786,4.693,3.777,4.726,8.86c1.817-2.167,6.924-3.405,9.746-1.182c-1.794-4.019-0.303-8.543,1.772-10.336
			c-5.197,0.668-7.333-1.723-9.155-4.43C177.758,327.045,174.838,328.851,171.041,329.779z"/>
		<path fill-rule="evenodd" clip-rule="evenodd" d="M311.618,827.707c-9.746,0-19.492,0-29.237,0
			c-73.57-6.379-123.46-34.457-161.841-75.604c-19.105-20.482-34.572-43.594-46.367-71.766
			c-11.246-26.861-18.681-58.824-17.72-98.936c0.901-37.605,9.871-66.871,22.445-93.325c12.507-26.311,28.822-48.092,48.729-67.63
			c19.534-19.172,43.119-35.924,70.584-48.139c27.776-12.352,60.019-20.673,98.345-20.673c37.563,0,70.358,8.946,97.459,21.264
			c27.696,12.589,51.103,28.067,70.879,47.843c29.736,29.736,52.029,64.309,63.496,109.863c3.759,14.932,7.103,32.625,7.384,51.092
			c0.604,39.712-6.53,70.782-18.016,98.345c-21.878,52.505-60.411,95.085-111.93,121.972
			C379.816,815.589,347.707,825.203,311.618,827.707z M293.603,506.978c-14.618,39.77-47.217,69.007-95.096,79.148
			c55.828,12.188,89.314,46.021,100.412,100.413c3.143-12.998,7.271-24.768,12.995-35.735
			c17.167-32.896,46.959-55.962,88.599-64.973c-55.797-11.503-89.521-49.902-101.298-99.526
			C297.482,493.659,295.911,500.7,293.603,506.978z"/>
		<g>
			<path fill-rule="evenodd" clip-rule="evenodd" fill="none" stroke="#000000" stroke-width="1.5618" stroke-linecap="round" d="
				M292.126,342.479c3.949-0.612,7.749-1.815,11.666-2.769"/>
			<path fill-rule="evenodd" clip-rule="evenodd" fill="none" stroke="#000000" stroke-width="1.562" stroke-linecap="round" d="
				M254.915,322.691c-0.348-2.577-1.011-5.129-1.756-7.613"/>
		</g>
	</g>
</g>
</svg>
